<svg xmlns="http://www.w3.org/2000/svg" width="18" height="24" viewBox="0 0 18 24">
    <g fill="none" fill-rule="evenodd" opacity=".65">
        <path d="M-3 0h24v24H-3z"/>
        <path fill="#000" fill-rule="nonzero" d="M17.156 18H13.5v-3.656a.843.843 0 1 0-1.688 0V18H8.345a.843.843 0 1 0 0 1.688h3.469v3.468a.843.843 0 1 0 1.687 0v-3.468h3.656a.843.843 0 1 0 0-1.688zm.354-10.927L10.995.5a1.815 1.815 0 0 0-.347-.27 1.428 1.428 0 0 0-.103-.053c-.022-.012-.045-.021-.066-.03A1.696 1.696 0 0 0 9.797 0h-8.11C.755 0 0 .755 0 1.688v20.625C0 23.244.755 24 1.688 24h4.968a.843.843 0 1 0 0-1.688H1.688V1.688H9v5.625C9 8.245 9.755 9 10.688 9h5.624v3.656a.843.843 0 1 0 1.688 0V8.262c0-.446-.176-.872-.49-1.189zm-6.823.24V2.588l4.683 4.724h-4.682z"/>
    </g>
</svg>
